# xmcd
#
# Track frame offsets: 
#        150
#        16710
#        36123
#        51933
#        66344
#        81970
#        97284
#        111576
#        126399
#        142325
#        157020
#        176458
#
# Disc length: 2624 seconds
#
# Revision: 0
# Processed by: cddbd v1.5.2PL0 Copyright (c) Steve Scherf et al.
# Submitted via: ExactAudioCopy v0.99pb5
#
DISCID=b40a3e0c
DTITLE=Adele - 19
DYEAR=2008
DGENRE=Alternative
TTITLE0=Daydreamer
TTITLE1=Best For Last
TTITLE2=Chasing Pavements
TTITLE3=Cold Shoulder
TTITLE4=Crazy For You
TTITLE5=Melt My Heart To Stone
TTITLE6=First Love
TTITLE7=Right As Rain
TTITLE8=Make You Feel My Love
TTITLE9=My Same
TTITLE10=Tired
TTITLE11=Hometown Glory
EXTD=
EXTT0=
EXTT1=
EXTT2=
EXTT3=
EXTT4=
EXTT5=
EXTT6=
EXTT7=
EXTT8=
EXTT9=
EXTT10=
EXTT11=
PLAYORDER=
